<?xml version="1.0" encoding="UTF-8"?>
<!DOCTYPE svg PUBLIC "-//W3C//DTD SVG 1.1//EN" "http://www.w3.org/Graphics/SVG/1.1/DTD/svg11.dtd">
<svg xmlns="http://www.w3.org/2000/svg" version="1.1" width="143px" height="143px" style="shape-rendering:geometricPrecision; text-rendering:geometricPrecision; image-rendering:optimizeQuality; fill-rule:evenodd; clip-rule:evenodd" xmlns:xlink="http://www.w3.org/1999/xlink">
<g><path style="opacity:1" fill="#f6720a" d="M 81.5,7.5 C 86.2553,8.08508 90.922,9.08508 95.5,10.5C 92.4747,18.3764 87.9747,25.3764 82,31.5C 79.153,27.9888 76.3196,24.4888 73.5,21C 76.7754,16.8842 79.4421,12.3842 81.5,7.5 Z"/></g>
<g><path style="opacity:1" fill="#e61430" d="M 51.5,7.5 C 54.1398,7.95401 56.4732,9.12067 58.5,11C 68.2032,21.0346 77.5365,31.368 86.5,42C 83.6159,45.5856 80.2826,48.2522 76.5,50C 65.5,36.3333 53.1667,24 39.5,13C 43.4506,10.8548 47.4506,9.02144 51.5,7.5 Z"/></g>
<g><path style="opacity:1" fill="#e5b114" d="M 25.5,21.5 C 34.2923,26.1102 42.1256,32.1102 49,39.5C 49.6667,40.1667 49.6667,40.8333 49,41.5C 46.2047,43.2932 43.7047,45.4598 41.5,48C 40.5,48.6667 39.5,48.6667 38.5,48C 31.8752,41.6881 24.5418,36.3547 16.5,32C 19.3355,28.3332 22.3355,24.8332 25.5,21.5 Z"/></g>
<g><path style="opacity:1" fill="#f25308" d="M 107.5,19.5 C 111.672,21.1585 115.172,23.8252 118,27.5C 117.968,29.5979 117.301,31.5979 116,33.5C 106.039,47.128 94.3724,59.128 81,69.5C 77.7959,66.6312 74.9626,63.4646 72.5,60C 86.9343,48.7437 98.601,35.2437 107.5,19.5 Z"/></g>
<g><path style="opacity:1" fill="#bf183b" d="M 58.5,36.5 C 61.8909,39.3853 65.2242,42.552 68.5,46C 60.9412,53.3954 52.9412,60.2287 44.5,66.5C 41.5,63.8333 38.5,61.1667 35.5,58.5C 43.1872,51.1452 50.8539,43.8119 58.5,36.5 Z"/></g>
<g><path style="opacity:1" fill="#ec710b" d="M 8.5,44.5 C 23.681,52.169 36.681,62.669 47.5,76C 44.6159,79.5856 41.2826,82.2522 37.5,84C 27.7999,73.4581 16.7999,64.6247 4.5,57.5C 5.84191,53.1428 7.17525,48.8095 8.5,44.5 Z"/></g>
<g><path style="opacity:1" fill="#9b2239" d="M 126.5,41.5 C 130.297,46.1078 132.131,51.4412 132,57.5C 127.652,62.0153 123.152,66.3487 118.5,70.5C 115.349,67.8496 112.349,65.0162 109.5,62C 115.779,55.5656 121.445,48.7323 126.5,41.5 Z"/></g>
<g><path style="opacity:1" fill="#0a6b7e" d="M 62.5,55.5 C 64.371,55.8588 65.871,56.8588 67,58.5C 71.9575,65.1263 77.2908,71.4596 83,77.5C 83.6667,78.5 83.6667,79.5 83,80.5C 80.0211,82.6445 77.1878,84.9778 74.5,87.5C 67.4863,79.8169 60.8197,71.8169 54.5,63.5C 57.4939,61.1727 60.1606,58.5061 62.5,55.5 Z"/></g>
<g><path style="opacity:1" fill="#052c44" d="M 18.5,72.5 C 22.1084,74.7699 25.4417,77.4366 28.5,80.5C 22.1077,86.7225 16.2744,93.3891 11,100.5C 8.33868,96.3745 6.50535,91.8745 5.5,87C 9.26988,81.6001 13.6032,76.7668 18.5,72.5 Z"/></g>
<g><path style="opacity:1" fill="#598bd9" d="M 99.5,57.5 C 108.673,68.0068 119.34,76.6735 131.5,83.5C 132.692,88.7568 131.525,93.4234 128,97.5C 113.302,89.9813 100.802,79.648 90.5,66.5C 93.8544,63.8123 96.8544,60.8123 99.5,57.5 Z"/></g>
<g><path style="opacity:1" fill="#0a60c7" d="M 55.5,73.5 C 59.5586,75.7205 62.8919,78.8872 65.5,83C 51.4755,94.1844 39.8089,107.351 30.5,122.5C 26.4429,121.676 22.9429,119.343 20,115.5C 19.3333,114.5 19.3333,113.5 20,112.5C 30.2509,98.0814 42.0842,85.0814 55.5,73.5 Z"/></g>
<g><path style="opacity:1" fill="#084073" d="M 92.5,76.5 C 96.302,77.7786 99.4687,80.1119 102,83.5C 102.667,84.1667 102.667,84.8333 102,85.5C 95.1667,91.6667 88.3333,97.8333 81.5,104C 80.2411,104.982 78.9078,105.315 77.5,105C 75.3333,102.833 73.1667,100.667 71,98.5C 70.3333,97.5 70.3333,96.5 71,95.5C 78.0635,88.9296 85.2301,82.5963 92.5,76.5 Z"/></g>
<g><path style="opacity:1" fill="#096b7e" d="M 97.5,93.5 C 105.061,99.8886 113.061,105.722 121.5,111C 118.87,114.632 115.87,117.965 112.5,121C 103.662,116.871 95.8286,111.038 89,103.5C 88.3333,102.833 88.3333,102.167 89,101.5C 92.003,98.9329 94.8363,96.2663 97.5,93.5 Z"/></g>
<g><path style="opacity:1" fill="#094073" d="M 54.5,111.5 C 55.2389,111.369 55.9056,111.536 56.5,112C 58.9787,115.313 61.6454,118.48 64.5,121.5C 61.8333,125.833 59.1667,130.167 56.5,134.5C 52.731,135.427 49.0644,134.927 45.5,133C 44.09,132.632 43.09,131.799 42.5,130.5C 46.2716,123.942 50.2716,117.608 54.5,111.5 Z"/></g>
<g><path style="opacity:1" fill="#1195d9" d="M 59.5,92.5 C 62.3943,93.8823 64.8943,95.8823 67,98.5C 76.1667,110.333 86.6667,120.833 98.5,130C 94.071,132.44 89.4043,134.274 84.5,135.5C 72.4858,124.818 61.4858,113.152 51.5,100.5C 54.5211,98.1456 57.1877,95.4789 59.5,92.5 Z"/></g>
</svg>
