<svg xmlns="http://www.w3.org/2000/svg" version="1.2" baseProfile="tiny" viewBox="0.00 0.00 1136.00 1136.00">
<g stroke-width="2.00" fill="none" stroke-linecap="butt">
<path stroke="#ffbc88" vector-effect="non-scaling-stroke" d="   M 818.14 171.57   C 764.41 148.84 710.53 125.76 653.49 101.02   Q 652.11 100.42 650.01 100.11   Q 648.35 99.86 649.47 101.12   Q 651.28 103.15 653.25 104.55   Q 690.96 131.33 725.41 165.04   C 728.49 168.06 732.42 170.77 736.75 170.85   Q 779.05 171.60 820.75 176.72   Q 821.95 176.87 823.06 176.64   A 0.73 0.73 0.0 0 0 823.45 175.44   Q 821.09 172.82 818.14 171.57"/>
<path stroke="#ffbc88" vector-effect="non-scaling-stroke" d="   M 478.48 105.03   C 418.42 128.87 358.59 152.71 299.14 176.35   Q 296.08 177.57 293.54 179.09   Q 291.56 180.26 293.86 180.28   Q 296.33 180.30 298.82 179.85   Q 332.00 173.79 366.96 172.05   Q 383.55 171.22 398.68 170.86   C 402.19 170.77 406.20 169.25 408.74 166.69   Q 434.63 140.73 464.43 118.66   C 469.63 114.81 474.42 110.70 478.90 106.36   Q 479.28 105.98 479.31 105.63   Q 479.37 104.67 478.48 105.03"/>
<path stroke="#ffbc88" vector-effect="non-scaling-stroke" d="   M 609.35 154.02   L 525.97 154.02   A 7.56 7.56 0.0 0 0 518.41 161.58   L 518.41 166.84   A 24.17 19.68 0.0 0 0 542.58 186.52   L 592.74 186.52   A 24.17 19.68 -0.0 0 0 616.91 166.84   L 616.91 161.58   A 7.56 7.56 0.0 0 0 609.35 154.02"/>
<path stroke="#ffbc88" vector-effect="non-scaling-stroke" d="   M 680.07 189.53   C 676.70 193.54 676.01 200.01 677.92 204.63   Q 679.81 209.20 683.10 214.49   Q 688.49 223.14 694.38 231.36   C 697.87 236.23 701.26 240.50 707.88 240.07   Q 722.01 239.17 738.64 234.46   Q 744.04 232.93 747.55 231.07   C 754.25 227.53 755.50 219.42 753.17 212.75   C 750.79 205.92 743.91 202.08 736.68 203.22   Q 728.66 204.49 719.88 206.09   Q 715.83 206.83 713.83 203.56   Q 709.38 196.30 704.66 189.98   C 698.23 181.37 686.89 181.44 680.07 189.53"/>
<path stroke="#ffbc88" vector-effect="non-scaling-stroke" d="   M 381.98 213.72   Q 380.62 216.93 381.31 220.20   Q 383.52 230.60 394.00 233.71   Q 406.68 237.47 423.93 239.90   Q 433.92 241.30 439.38 233.87   Q 448.49 221.46 455.81 208.83   C 459.90 201.76 459.38 193.44 454.11 187.29   Q 452.42 185.32 449.05 184.66   C 439.57 182.80 433.22 185.33 428.58 193.06   Q 424.97 199.06 420.25 205.04   C 419.10 206.49 417.17 207.21 415.38 206.62   C 403.47 202.72 387.99 199.53 381.98 213.72"/>
<path stroke="#ffbc88" vector-effect="non-scaling-stroke" d="   M 505.7432 224.1553   A 15.35 15.35 0.0 0 0 484.8045 218.4271   L 483.5710 219.1307   A 15.35 15.35 0.0 0 0 477.8428 240.0695   L 493.7768 268.0047   A 15.35 15.35 0.0 0 0 514.7155 273.7329   L 515.9490 273.0293   A 15.35 15.35 0.0 0 0 521.6772 252.0905   L 505.7432 224.1553"/>
<path stroke="#ffbc88" vector-effect="non-scaling-stroke" d="   M 657.6825 240.0497   A 15.36 15.36 0.0 0 0 651.9505 219.0972   L 650.8039 218.4432   A 15.36 15.36 0.0 0 0 629.8515 224.1752   L 613.9175 252.1103   A 15.36 15.36 0.0 0 0 619.6495 273.0628   L 620.7961 273.7168   A 15.36 15.36 0.0 0 0 641.7485 267.9848   L 657.6825 240.0497"/>
<path stroke="#ffbc88" vector-effect="non-scaling-stroke" d="   M 888.00 303.60   L 829.56 245.16   A 8.07 8.07 0.0 0 0 818.15 245.16   L 813.49 249.82   A 28.19 18.06 45.0 0 0 820.65 282.53   L 850.63 312.51   A 28.19 18.06 45.0 0 0 883.34 319.67   L 888.00 315.01   A 8.07 8.07 0.0 0 0 888.00 303.60"/>
<path stroke="#ffbc88" vector-effect="non-scaling-stroke" d="   M 250.15 300.45   C 248.20 305.17 247.60 311.67 249.87 316.49   C 253.27 323.68 264.69 326.52 271.06 322.10   Q 301.81 300.76 323.63 269.94   Q 328.39 263.21 325.89 256.05   C 322.56 246.55 314.24 242.32 304.67 246.63   C 299.15 249.12 295.94 253.95 292.39 258.35   Q 275.68 279.05 255.15 294.40   C 253.16 295.89 251.12 298.10 250.15 300.45"/>
<path stroke="#ffbc88" vector-effect="non-scaling-stroke" d="   M 765.2424 280.3694   A 15.31 15.31 0.0 0 0 754.6795 261.4692   L 753.3324 261.0880   A 15.31 15.31 0.0 0 0 734.4322 271.6510   L 725.6376 302.7306   A 15.31 15.31 0.0 0 0 736.2005 321.6308   L 737.5476 322.0120   A 15.31 15.31 0.0 0 0 756.4478 311.4490   L 765.2424 280.3694"/>
<path stroke="#ffbc88" vector-effect="non-scaling-stroke" d="   M 401.0931 271.6445   A 15.35 15.35 0.0 0 0 382.0337 261.2529   L 380.5948 261.6764   A 15.35 15.35 0.0 0 0 370.2032 280.7359   L 379.2269 311.3955   A 15.35 15.35 0.0 0 0 398.2863 321.7871   L 399.7252 321.3636   A 15.35 15.35 0.0 0 0 410.1168 302.3041   L 401.0931 271.6445"/>
<path stroke="#ffbc88" vector-effect="non-scaling-stroke" d="   M 961.99 393.51   C 962.00 397.77 963.21 402.60 966.19 405.68   Q 996.02 436.44 1019.21 467.73   Q 1020.61 469.62 1022.49 471.02   Q 1024.15 472.24 1023.78 470.21   Q 1023.28 467.42 1022.04 464.27   C 999.97 408.00 978.97 353.89 956.45 300.01   Q 955.61 298.02 954.56 296.07   A 0.52 0.52 0.0 0 0 953.63 296.11   Q 953.37 296.73 953.55 297.76   Q 961.88 345.23 961.99 393.51"/>
<path stroke="#ffbc88" vector-effect="non-scaling-stroke" d="   M 177.15 308.11   C 151.09 367.72 125.07 428.40 99.34 488.11   Q 99.02 488.84 99.65 489.33   L 100.18 489.75   A 0.88 0.87 -54.6 0 0 101.45 489.53   Q 130.35 445.36 168.06 407.36   C 171.08 404.32 173.03 401.51 173.08 397.50   Q 173.56 353.74 180.43 308.35   Q 180.72 306.42 180.39 304.61   A 0.63 0.62 -32.4 0 0 179.27 304.36   Q 178.08 305.98 177.15 308.11"/>
<path stroke="#ffbc88" vector-effect="non-scaling-stroke" d="   M 566.48 320.63   Q 565.74 318.73 564.90 316.88   C 559.20 304.45 544.65 307.08 537.98 316.65   Q 532.02 325.20 525.14 336.17   Q 521.82 341.47 520.23 345.53   C 514.17 361.03 535.97 372.31 546.18 360.47   Q 555.66 349.49 566.56 328.83   Q 566.87 328.24 567.43 327.93   A 0.99 0.98 -27.8 0 1 568.79 328.35   Q 577.53 346.02 588.74 359.51   C 595.04 367.10 605.46 367.60 612.15 360.28   C 617.54 354.38 616.99 346.47 612.96 339.94   Q 605.04 327.09 597.18 315.97   C 591.25 307.59 582.66 306.67 574.22 312.18   C 571.31 314.08 570.00 318.02 567.99 320.83   A 0.87 0.86 52.3 0 1 566.48 320.63"/>
<path stroke="#ffbc88" vector-effect="non-scaling-stroke" d="   M 324.2927 395.6327   A 15.30 15.30 0.0 0 0 313.7697 376.7264   L 282.9170 367.9378   A 15.30 15.30 0.0 0 0 264.0108 378.4609   L 263.6273 379.8073   A 15.30 15.30 0.0 0 0 274.1503 398.7136   L 305.0030 407.5022   A 15.30 15.30 0.0 0 0 323.9092 396.9791   L 324.2927 395.6327"/>
<path stroke="#ffbc88" vector-effect="non-scaling-stroke" d="   M 871.6353 378.3788   A 15.24 15.24 0.0 0 0 852.8215 367.8641   L 821.5110 376.7241   A 15.24 15.24 0.0 0 0 810.9963 395.5379   L 811.4047 396.9812   A 15.24 15.24 0.0 0 0 830.2185 407.4959   L 861.5290 398.6359   A 15.24 15.24 0.0 0 0 872.0437 379.8221   L 871.6353 378.3788"/>
<path stroke="#ffbc88" vector-effect="non-scaling-stroke" d="   M 394.59 392.69   C 391.60 392.05 388.92 391.01 385.75 391.02   Q 374.72 391.06 371.53 400.54   Q 369.89 405.42 371.47 414.64   Q 373.91 428.96 377.42 440.30   C 380.29 449.56 389.78 455.05 398.97 450.21   Q 405.31 446.88 407.11 440.27   Q 408.31 435.87 406.85 427.98   Q 403.87 411.91 399.55 398.18   Q 399.41 397.73 399.57 397.28   Q 399.87 396.42 400.72 396.75   Q 415.83 402.57 430.98 404.60   C 440.06 405.82 451.32 404.42 454.00 393.71   C 455.76 386.68 452.46 379.01 445.79 376.27   Q 436.07 372.29 419.35 369.36   C 414.81 368.57 409.43 367.43 405.30 368.41   Q 394.21 371.05 393.28 381.99   C 393.00 385.24 394.33 388.61 395.47 391.68   Q 395.95 392.99 394.59 392.69"/>
<path stroke="#ffbc88" vector-effect="non-scaling-stroke" d="   M 740.81 391.83   A 0.88 0.87 37.0 0 1 740.69 391.01   C 741.88 387.64 742.93 383.45 742.18 379.94   Q 740.36 371.44 731.65 368.58   C 729.15 367.76 724.10 368.17 721.45 368.59   Q 705.16 371.19 688.97 376.47   C 683.52 378.24 681.60 384.21 681.01 389.56   Q 680.69 392.38 682.02 394.81   Q 686.56 403.11 694.30 404.50   Q 699.03 405.34 707.98 403.78   Q 721.50 401.42 734.27 397.14   A 1.30 1.30 0.0 0 1 735.93 398.75   C 732.52 409.82 728.59 422.24 728.14 433.48   Q 727.95 438.22 729.38 441.96   C 731.81 448.32 737.97 453.07 744.93 451.85   Q 755.28 450.03 758.66 439.00   Q 762.36 426.96 764.32 414.44   C 765.03 409.91 765.39 404.04 763.59 399.81   C 759.55 390.34 751.49 388.97 742.00 392.26   Q 741.31 392.50 740.81 391.83"/>
<path stroke="#ffbc88" vector-effect="non-scaling-stroke" d="   M 187.78 448.01   C 192.31 457.62 203.52 458.10 211.81 453.10   Q 224.22 445.60 236.31 437.15   Q 242.79 432.62 242.43 425.27   Q 241.70 410.42 236.23 391.95   C 235.30 388.80 234.44 385.83 232.26 383.45   Q 225.50 376.08 215.13 380.39   C 205.28 384.47 204.23 391.01 206.09 400.35   Q 207.06 405.23 207.76 410.09   C 208.27 413.64 209.72 417.77 205.56 419.88   C 195.39 425.04 181.30 434.23 187.78 448.01"/>
<path stroke="#ffbc88" vector-effect="non-scaling-stroke" d="   M 930.21 391.26   C 929.05 385.86 922.30 379.36 916.54 379.03   C 905.97 378.42 901.06 384.30 898.66 393.98   Q 894.96 408.86 893.20 420.75   Q 891.64 431.23 899.33 436.97   Q 908.25 443.63 922.33 452.24   Q 926.75 454.94 930.34 455.84   C 937.14 457.53 944.58 454.57 947.63 448.13   Q 950.29 442.52 948.48 436.12   C 946.21 428.07 936.11 423.25 929.61 419.09   A 5.40 5.39 21.1 0 1 927.20 413.67   Q 928.40 406.52 929.90 399.12   Q 930.87 394.35 930.21 391.26"/>
<path stroke="#ffbc88" vector-effect="non-scaling-stroke" d="   M 275.9463 512.6321   A 15.35 15.35 0.0 0 0 270.4743 491.6249   L 243.0291 475.5229   A 15.35 15.35 0.0 0 0 222.0219 480.9949   L 221.3337 482.1679   A 15.35 15.35 0.0 0 0 226.8057 503.1751   L 254.2509 519.2771   A 15.35 15.35 0.0 0 0 275.2581 513.8051   L 275.9463 512.6321"/>
<path stroke="#ffbc88" vector-effect="non-scaling-stroke" d="   M 913.8712 481.1873   A 15.32 15.32 0.0 0 0 892.9633 475.5067   L 865.0734 491.4795   A 15.32 15.32 0.0 0 0 859.3928 512.3873   L 860.0488 513.5327   A 15.32 15.32 0.0 0 0 880.9567 519.2133   L 908.8466 503.2405   A 15.32 15.32 0.0 0 0 914.5272 482.3327   L 913.8712 481.1873"/>
<path stroke="#ffbc88" vector-effect="non-scaling-stroke" d="   M 552.4132 530.0292   A 10.69 2.37 70.7 0 0 551.1168 519.1567   A 10.69 2.37 70.7 0 0 545.3468 509.8508   A 10.69 2.37 70.7 0 0 546.6432 520.7233   A 10.69 2.37 70.7 0 0 552.4132 530.0292"/>
<path stroke="#ffbc88" vector-effect="non-scaling-stroke" d="   M 581.8476 530.8523   A 11.13 2.28 113.3 0 0 588.3441 521.5318   A 11.13 2.28 113.3 0 0 590.6524 510.4077   A 11.13 2.28 113.3 0 0 584.1559 519.7282   A 11.13 2.28 113.3 0 0 581.8476 530.8523"/>
<path stroke="#ffbc88" vector-effect="non-scaling-stroke" d="   M 172.89 614.66   C 180.33 612.63 185.21 607.39 186.46 599.97   Q 192.28 565.43 186.65 531.47   C 185.36 523.70 182.57 517.86 174.42 516.18   C 165.58 514.36 157.06 520.35 155.42 528.95   Q 154.77 532.39 155.70 540.52   Q 158.69 566.79 155.23 592.86   C 153.95 602.51 160.23 618.10 172.89 614.66"/>
<path stroke="#ffbc88" vector-effect="non-scaling-stroke" d="   M 964.03 516.02   C 956.54 516.26 951.04 520.94 949.66 528.27   Q 943.43 561.34 948.62 597.79   Q 949.60 604.71 951.77 608.06   C 957.88 617.48 971.64 617.01 977.53 607.50   Q 980.94 602.01 980.21 594.75   Q 979.57 588.42 978.58 570.80   Q 978.02 560.81 979.14 551.14   Q 980.09 543.00 980.11 532.45   C 980.12 522.88 973.80 515.70 964.03 516.02"/>
<path stroke="#ffbc88" vector-effect="non-scaling-stroke" d="   M 364.6011 523.1515   A 15.12 15.12 0.0 0 0 343.6111 519.0715   L 317.7120 536.5407   A 15.12 15.12 0.0 0 0 313.6319 557.5307   L 314.3589 558.6085   A 15.12 15.12 0.0 0 0 335.3489 562.6885   L 361.2480 545.2193   A 15.12 15.12 0.0 0 0 365.3281 524.2293   L 364.6011 523.1515"/>
<path stroke="#ffbc88" vector-effect="non-scaling-stroke" d="   M 821.9966 557.3266   A 15.05 15.05 0.0 0 0 817.7897 536.4626   L 791.7026 519.1303   A 15.05 15.05 0.0 0 0 770.8386 523.3373   L 770.1634 524.3534   A 15.05 15.05 0.0 0 0 774.3703 545.2174   L 800.4574 562.5497   A 15.05 15.05 0.0 0 0 821.3214 558.3427   L 821.9966 557.3266"/>
<path stroke="#ffbc88" vector-effect="non-scaling-stroke" d="   M 532.2688 551.0285   A 11.42 2.28 23.8 0 0 522.7401 544.3339   A 11.42 2.28 23.8 0 0 511.3712 541.8115   A 11.42 2.28 23.8 0 0 520.8999 548.5061   A 11.42 2.28 23.8 0 0 532.2688 551.0285"/>
<path stroke="#ffbc88" vector-effect="non-scaling-stroke" d="   M 623.7479 541.9743   A 11.22 2.43 -23.9 0 0 612.5055 544.2984   A 11.22 2.43 -23.9 0 0 603.2321 551.0657   A 11.22 2.43 -23.9 0 0 614.4745 548.7416   A 11.22 2.43 -23.9 0 0 623.7479 541.9743"/>
<path stroke="#ffbc88" vector-effect="non-scaling-stroke" d="   M 365.5853 606.1281   A 15.08 15.08 0.0 0 0 361.2241 585.2524   L 334.8493 567.9932   A 15.08 15.08 0.0 0 0 313.9737 572.3544   L 313.2947 573.3919   A 15.08 15.08 0.0 0 0 317.6559 594.2676   L 344.0307 611.5268   A 15.08 15.08 0.0 0 0 364.9063 607.1656   L 365.5853 606.1281"/>
<path stroke="#ffbc88" vector-effect="non-scaling-stroke" d="   M 821.6898 572.2602   A 15.05 15.05 0.0 0 0 800.8406 567.9805   L 774.4093 585.4087   A 15.05 15.05 0.0 0 0 770.1296 606.2579   L 770.7902 607.2598   A 15.05 15.05 0.0 0 0 791.6394 611.5395   L 818.0707 594.1113   A 15.05 15.05 0.0 0 0 822.3504 573.2621   L 821.6898 572.2602"/>
<path stroke="#ffbc88" vector-effect="non-scaling-stroke" d="   M 533.9297 578.9408   A 11.61 2.04 -24.2 0 0 522.5038 581.8393   A 11.61 2.04 -24.2 0 0 512.7503 588.4592   A 11.61 2.04 -24.2 0 0 524.1762 585.5607   A 11.61 2.04 -24.2 0 0 533.9297 578.9408"/>
<path stroke="#ffbc88" vector-effect="non-scaling-stroke" d="   M 622.8298 588.1256   A 11.19 2.36 21.8 0 0 613.3164 581.7788   A 11.19 2.36 21.8 0 0 602.0502 579.8144   A 11.19 2.36 21.8 0 0 611.5636 586.1612   A 11.19 2.36 21.8 0 0 622.8298 588.1256"/>
<path stroke="#ffbc88" vector-effect="non-scaling-stroke" d="   M 591.0669 621.9994   A 11.64 2.40 67.7 0 0 588.8705 610.3193   A 11.64 2.40 67.7 0 0 582.2331 600.4606   A 11.64 2.40 67.7 0 0 584.4295 612.1407   A 11.64 2.40 67.7 0 0 591.0669 621.9994"/>
<path stroke="#ffbc88" vector-effect="non-scaling-stroke" d="   M 544.8621 620.1901   A 10.70 2.44 113.8 0 0 551.4125 611.3847   A 10.70 2.44 113.8 0 0 553.4979 600.6099   A 10.70 2.44 113.8 0 0 546.9475 609.4153   A 10.70 2.44 113.8 0 0 544.8621 620.1901"/>
<path stroke="#ffbc88" vector-effect="non-scaling-stroke" d="   M 914.4439 648.2365   A 15.26 15.26 0.0 0 0 908.8584 627.3909   L 881.0416 611.3309   A 15.26 15.26 0.0 0 0 860.1961 616.9165   L 859.4761 618.1635   A 15.26 15.26 0.0 0 0 865.0616 639.0091   L 892.8784 655.0691   A 15.26 15.26 0.0 0 0 913.7239 649.4835   L 914.4439 648.2365"/>
<path stroke="#ffbc88" vector-effect="non-scaling-stroke" d="   M 275.4429 617.1687   A 15.24 15.24 0.0 0 0 254.6443 611.5179   L 226.7022 627.5204   A 15.24 15.24 0.0 0 0 221.0514 648.3191   L 221.7571 649.5513   A 15.24 15.24 0.0 0 0 242.5557 655.2021   L 270.4978 639.1996   A 15.24 15.24 0.0 0 0 276.1486 618.4009   L 275.4429 617.1687"/>
<path stroke="#ffbc88" vector-effect="non-scaling-stroke" d="   M 981.37 766.02   Q 1005.00 711.37 1028.70 655.78   Q 1029.70 653.44 1030.27 651.17   Q 1031.03 648.18 1028.82 650.34   Q 1027.10 652.03 1025.80 653.87   C 1007.25 680.05 986.10 703.71 964.23 727.51   C 962.86 729.01 961.93 731.07 961.95 733.08   Q 962.35 773.76 956.60 814.54   Q 956.39 816.03 956.59 817.47   A 0.59 0.59 0.0 0 0 957.65 817.75   Q 958.78 816.27 959.64 814.41   Q 971.43 788.99 981.37 766.02"/>
<path stroke="#ffbc88" vector-effect="non-scaling-stroke" d="   M 110.63 661.36   C 133.64 719.03 156.73 777.16 180.09 834.96   Q 180.46 835.88 181.27 836.36   A 0.67 0.67 0.0 0 0 182.28 835.67   Q 173.59 785.48 173.43 732.74   Q 173.42 730.13 171.75 728.30   Q 142.51 696.27 112.27 658.83   Q 111.55 657.93 110.36 657.39   Q 109.75 657.11 109.79 657.79   Q 109.89 659.52 110.63 661.36"/>
<path stroke="#ffbc88" vector-effect="non-scaling-stroke" d="   M 206.23 711.59   C 208.25 712.86 209.31 715.14 208.75 717.49   Q 207.15 724.13 206.26 731.35   Q 205.52 737.29 206.62 741.37   C 209.34 751.41 220.77 754.53 229.09 748.97   Q 234.48 745.36 236.43 738.32   Q 240.03 725.31 242.22 710.98   C 243.46 702.92 242.10 697.57 235.44 692.96   Q 222.74 684.16 210.63 677.12   Q 202.94 672.64 195.98 675.31   C 190.85 677.28 186.96 682.08 186.16 687.48   Q 184.81 696.56 192.52 702.27   Q 198.79 706.92 206.23 711.59"/>
<path stroke="#ffbc88" vector-effect="non-scaling-stroke" d="   M 927.18 716.20   C 926.89 714.55 927.73 712.58 929.21 711.74   C 938.73 706.29 950.01 700.17 949.03 687.22   C 948.42 679.07 941.40 673.65 933.45 674.52   Q 930.08 674.89 925.74 677.09   Q 911.58 684.23 898.16 694.68   Q 891.92 699.54 892.75 707.88   C 893.95 719.93 897.27 755.17 916.68 751.57   C 927.91 749.48 931.06 741.25 929.60 731.18   Q 928.47 723.41 927.18 716.20"/>
<path stroke="#ffbc88" vector-effect="non-scaling-stroke" d="   M 401.21 733.38   A 1.04 1.03 -80.2 0 1 400.33 732.12   Q 404.19 714.88 408.01 698.01   C 409.82 690.05 402.99 680.50 394.94 679.06   C 386.83 677.60 380.59 680.83 377.87 689.04   Q 372.32 705.79 370.78 722.54   C 370.16 729.32 372.11 736.00 379.07 738.58   Q 386.76 741.42 392.86 738.46   Q 396.36 736.76 394.97 740.39   Q 394.47 741.70 394.01 742.97   C 389.85 754.38 400.55 764.31 411.37 762.67   Q 424.00 760.75 442.31 756.07   Q 450.57 753.95 453.10 747.21   C 456.73 737.53 451.06 724.99 439.72 725.61   Q 423.75 726.49 402.44 733.25   Q 401.80 733.46 401.21 733.38"/>
<path stroke="#ffbc88" vector-effect="non-scaling-stroke" d="   M 740.50 737.99   Q 741.20 737.96 741.87 738.26   Q 750.80 742.25 758.27 737.44   C 763.11 734.31 765.80 728.21 765.19 722.51   Q 763.64 708.27 758.40 690.96   C 756.29 683.98 752.71 678.66 744.57 678.75   Q 734.53 678.86 729.85 687.25   C 727.79 690.94 727.91 696.30 728.40 700.51   C 729.61 710.92 732.85 721.49 735.71 731.99   Q 735.76 732.19 735.79 732.36   A 1.03 1.02 -86.2 0 1 734.47 733.52   Q 720.03 728.89 702.98 726.03   Q 694.79 724.65 688.89 728.06   C 679.34 733.58 678.01 745.93 686.99 752.74   Q 690.02 755.04 694.16 756.12   Q 708.83 759.96 721.92 762.32   C 731.66 764.07 742.35 759.16 742.26 748.03   Q 742.23 743.59 739.99 738.83   A 0.59 0.59 0.0 0 1 740.50 737.99"/>
<path stroke="#ffbc88" vector-effect="non-scaling-stroke" d="   M 324.0372 733.8157   A 15.23 15.23 0.0 0 0 305.2542 723.2752   L 274.0245 732.0535   A 15.23 15.23 0.0 0 0 263.4839 750.8365   L 263.8628 752.1843   A 15.23 15.23 0.0 0 0 282.6458 762.7248   L 313.8755 753.9465   A 15.23 15.23 0.0 0 0 324.4161 735.1635   L 324.0372 733.8157"/>
<path stroke="#ffbc88" vector-effect="non-scaling-stroke" d="   M 872.0904 750.8654   A 15.26 15.26 0.0 0 0 861.5291 732.0453   L 830.2993 723.2670   A 15.26 15.26 0.0 0 0 811.4793 733.8284   L 811.0896 735.2146   A 15.26 15.26 0.0 0 0 821.6509 754.0347   L 852.8807 762.8130   A 15.26 15.26 0.0 0 0 871.7007 752.2516   L 872.0904 750.8654"/>
<path stroke="#ffbc88" vector-effect="non-scaling-stroke" d="   M 567.77 803.04   Q 567.01 803.52 566.65 802.71   Q 560.44 788.97 549.74 774.44   C 545.98 769.34 541.19 765.69 534.80 765.61   C 528.28 765.53 522.03 769.55 520.11 775.93   Q 518.12 782.50 522.13 789.43   Q 529.79 802.65 538.68 814.72   Q 545.95 824.61 557.23 820.93   C 559.90 820.06 563.41 818.48 564.15 815.71   Q 565.01 812.50 566.01 809.32   Q 566.24 808.58 567.13 808.80   A 1.00 0.99 -8.4 0 1 567.73 809.24   Q 570.32 813.46 572.74 817.29   Q 573.79 818.94 575.63 819.80   C 584.54 823.97 591.78 821.56 597.27 814.25   Q 607.80 800.24 614.13 788.51   C 624.02 770.21 598.94 756.76 587.27 772.61   Q 578.26 784.85 568.74 802.00   Q 568.38 802.66 567.77 803.04"/>
<path stroke="#ffbc88" vector-effect="non-scaling-stroke" d="   M 258.44 807.24   C 255.57 808.09 252.30 809.50 250.82 812.26   Q 245.52 822.14 250.21 830.44   Q 252.33 834.19 258.42 838.94   Q 278.58 854.64 297.15 878.15   C 303.15 885.74 314.42 889.14 322.01 881.26   Q 331.33 871.59 323.72 860.75   Q 302.89 831.07 273.18 809.99   C 268.25 806.49 264.36 805.48 258.44 807.24"/>
<path stroke="#ffbc88" vector-effect="non-scaling-stroke" d="   M 875.53 807.28   C 871.50 806.40 867.02 806.75 863.72 809.12   Q 834.95 829.73 812.68 859.57   C 808.97 864.54 806.96 869.68 809.74 875.66   C 813.82 884.46 826.31 889.49 834.45 882.14   C 838.19 878.76 841.26 874.48 844.66 870.62   Q 861.28 851.71 881.65 835.09   C 885.87 831.65 888.86 825.13 887.88 819.41   Q 886.20 809.62 875.53 807.28"/>
<path stroke="#ffbc88" vector-effect="non-scaling-stroke" d="   M 410.0520 828.0623   A 15.32 15.32 0.0 0 0 399.6808 809.0401   L 398.2610 808.6223   A 15.32 15.32 0.0 0 0 379.2389 818.9935   L 370.1080 850.0177   A 15.32 15.32 0.0 0 0 380.4792 869.0399   L 381.8990 869.4577   A 15.32 15.32 0.0 0 0 400.9211 859.0865   L 410.0520 828.0623"/>
<path stroke="#ffbc88" vector-effect="non-scaling-stroke" d="   M 756.1013 818.8889   A 15.25 15.25 0.0 0 0 737.1841 808.5320   L 735.8020 808.9362   A 15.25 15.25 0.0 0 0 725.4451 827.8534   L 734.5387 858.9511   A 15.25 15.25 0.0 0 0 753.4559 869.3080   L 754.8380 868.9038   A 15.25 15.25 0.0 0 0 765.1949 849.9866   L 756.1013 818.8889"/>
<path stroke="#ffbc88" vector-effect="non-scaling-stroke" d="   M 521.7973 878.7562   A 15.36 15.36 0.0 0 0 516.2851 857.7449   L 515.0591 857.0284   A 15.36 15.36 0.0 0 0 494.0478 862.5406   L 477.8827 890.2038   A 15.36 15.36 0.0 0 0 483.3949 911.2151   L 484.6209 911.9316   A 15.36 15.36 0.0 0 0 505.6322 906.4194   L 521.7973 878.7562"/>
<path stroke="#ffbc88" vector-effect="non-scaling-stroke" d="   M 641.4076 862.5145   A 15.34 15.34 0.0 0 0 620.4046 857.0828   L 619.3017 857.7324   A 15.34 15.34 0.0 0 0 613.8699 878.7355   L 630.1924 906.4455   A 15.34 15.34 0.0 0 0 651.1954 911.8772   L 652.2983 911.2276   A 15.34 15.34 0.0 0 0 657.7301 890.2245   L 641.4076 862.5145"/>
<path stroke="#ffbc88" vector-effect="non-scaling-stroke" d="   M 383.34 904.86   Q 379.38 912.02 382.54 918.82   Q 387.70 929.95 400.50 927.56   Q 408.07 926.15 415.35 924.84   Q 420.33 923.93 422.70 928.51   C 427.08 936.94 434.64 948.30 445.79 946.82   C 453.32 945.81 459.40 941.04 458.65 932.76   C 458.02 925.82 454.31 918.49 450.58 912.60   Q 446.08 905.50 439.83 896.91   C 436.92 892.92 432.40 889.92 427.58 890.35   Q 412.66 891.68 393.82 897.03   Q 386.52 899.10 383.34 904.86"/>
<path stroke="#ffbc88" vector-effect="non-scaling-stroke" d="   M 752.94 918.34   C 757.78 909.26 751.06 899.62 741.97 897.07   Q 728.59 893.32 712.66 890.81   C 706.39 889.82 701.68 889.91 697.82 894.87   Q 688.12 907.35 679.09 922.99   C 673.57 932.55 677.26 943.58 688.20 946.45   C 700.61 949.70 708.30 937.13 713.47 927.89   C 714.93 925.26 717.39 923.74 720.44 924.54   C 731.79 927.52 746.03 931.29 752.94 918.34"/>
<path stroke="#ffbc88" vector-effect="non-scaling-stroke" d="   M 520.00 969.54   C 523.72 976.53 530.62 978.77 538.15 977.91   Q 561.39 975.24 585.09 976.76   C 595.56 977.43 607.10 981.33 614.47 970.98   C 617.05 967.36 617.43 962.54 616.75 958.24   C 615.84 952.50 611.55 948.76 605.99 947.59   C 584.21 942.99 561.68 942.83 539.55 945.74   C 530.38 946.95 523.74 947.46 519.80 955.26   C 517.39 960.03 517.45 964.74 520.00 969.54"/>
<path stroke="#ffbc88" vector-effect="non-scaling-stroke" d="   M 663.79 1020.81   C 716.56 1000.31 775.32 976.65 834.22 953.16   A 1.06 1.06 0.0 0 0 834.61 951.45   Q 833.98 950.77 833.10 950.93   C 802.02 956.66 769.32 959.49 736.88 960.00   C 733.97 960.04 730.49 960.84 728.39 962.88   Q 698.01 992.51 663.68 1018.42   Q 662.61 1019.23 662.45 1019.59   Q 661.53 1021.69 663.79 1020.81"/>
<path stroke="#ffbc88" vector-effect="non-scaling-stroke" d="   M 321.02 959.22   C 375.28 982.60 428.55 1005.79 481.83 1028.70   Q 483.78 1029.54 482.83 1027.64   Q 482.21 1026.38 480.45 1025.07   Q 449.27 1001.76 421.52 975.99   Q 415.27 970.20 409.09 964.41   C 404.37 959.98 400.00 959.79 393.91 959.75   Q 353.39 959.46 315.39 953.72   Q 313.92 953.50 312.45 953.94   A 0.56 0.55 51.6 0 0 312.34 954.95   Q 316.15 957.12 321.02 959.22"/>
</g>

<g xmlns="http://www.w3.org/2000/svg" fill="#ff7810">
<path d="   M 653.49 101.02   C 710.53 125.76 764.41 148.84 818.14 171.57   Q 821.09 172.82 823.45 175.44   A 0.73 0.73 0.0 0 1 823.06 176.64   Q 821.95 176.87 820.75 176.72   Q 779.05 171.60 736.75 170.85   C 732.42 170.77 728.49 168.06 725.41 165.04   Q 690.96 131.33 653.25 104.55   Q 651.28 103.15 649.47 101.12   Q 648.35 99.86 650.01 100.11   Q 652.11 100.42 653.49 101.02   Z"/>
<path d="   M 299.14 176.35   C 358.59 152.71 418.42 128.87 478.48 105.03   Q 479.37 104.67 479.31 105.63   Q 479.28 105.98 478.90 106.36   C 474.42 110.70 469.63 114.81 464.43 118.66   Q 434.63 140.73 408.74 166.69   C 406.20 169.25 402.19 170.77 398.68 170.86   Q 383.55 171.22 366.96 172.05   Q 332.00 173.79 298.82 179.85   Q 296.33 180.30 293.86 180.28   Q 291.56 180.26 293.54 179.09   Q 296.08 177.57 299.14 176.35   Z"/>
<path d="   M 609.35 154.02   A 7.56 7.56 0.0 0 1 616.91 161.58   L 616.91 166.84   A 24.17 19.68 -0.0 0 1 592.74 186.52   L 542.58 186.52   A 24.17 19.68 -0.0 0 1 518.41 166.84   L 518.41 161.58   A 7.56 7.56 0.0 0 1 525.97 154.02   L 609.35 154.02   Z"/>
<path d="   M 680.07 189.53   C 686.89 181.44 698.23 181.37 704.66 189.98   Q 709.38 196.30 713.83 203.56   Q 715.83 206.83 719.88 206.09   Q 728.66 204.49 736.68 203.22   C 743.91 202.08 750.79 205.92 753.17 212.75   C 755.50 219.42 754.25 227.53 747.55 231.07   Q 744.04 232.93 738.64 234.46   Q 722.01 239.17 707.88 240.07   C 701.26 240.50 697.87 236.23 694.38 231.36   Q 688.49 223.14 683.10 214.49   Q 679.81 209.20 677.92 204.63   C 676.01 200.01 676.70 193.54 680.07 189.53   Z"/>
<path d="   M 381.98 213.72   C 387.99 199.53 403.47 202.72 415.38 206.62   C 417.17 207.21 419.10 206.49 420.25 205.04   Q 424.97 199.06 428.58 193.06   C 433.22 185.33 439.57 182.80 449.05 184.66   Q 452.42 185.32 454.11 187.29   C 459.38 193.44 459.90 201.76 455.81 208.83   Q 448.49 221.46 439.38 233.87   Q 433.92 241.30 423.93 239.90   Q 406.68 237.47 394.00 233.71   Q 383.52 230.60 381.31 220.20   Q 380.62 216.93 381.98 213.72   Z"/>
<rect x="-16.06" y="-31.43" transform="translate(499.76,246.08) rotate(-29.7)" width="32.12" height="62.86" rx="15.35"/>
<rect x="-16.02" y="-31.44" transform="translate(635.80,246.08) rotate(29.7)" width="32.04" height="62.88" rx="15.36"/>
<path d="   M 888.00 303.60   A 8.07 8.07 0.0 0 1 888.00 315.01   L 883.34 319.67   A 28.19 18.06 45.0 0 1 850.63 312.51   L 820.65 282.53   A 28.19 18.06 45.0 0 1 813.49 249.82   L 818.15 245.16   A 8.07 8.07 0.0 0 1 829.56 245.16   L 888.00 303.60   Z"/>
<path d="   M 250.15 300.45   C 251.12 298.10 253.16 295.89 255.15 294.40   Q 275.68 279.05 292.39 258.35   C 295.94 253.95 299.15 249.12 304.67 246.63   C 314.24 242.32 322.56 246.55 325.89 256.05   Q 328.39 263.21 323.63 269.94   Q 301.81 300.76 271.06 322.10   C 264.69 326.52 253.27 323.68 249.87 316.49   C 247.60 311.67 248.20 305.17 250.15 300.45   Z"/>
<rect x="-16.01" y="-31.46" transform="translate(745.44,291.55) rotate(15.8)" width="32.02" height="62.92" rx="15.31"/>
<rect x="-16.10" y="-31.33" transform="translate(390.16,291.52) rotate(-16.4)" width="32.20" height="62.66" rx="15.35"/>
<path d="   M 966.19 405.68   C 963.21 402.60 962.00 397.77 961.99 393.51   Q 961.88 345.23 953.55 297.76   Q 953.37 296.73 953.63 296.11   A 0.52 0.52 0.0 0 1 954.56 296.07   Q 955.61 298.02 956.45 300.01   C 978.97 353.89 999.97 408.00 1022.04 464.27   Q 1023.28 467.42 1023.78 470.21   Q 1024.15 472.24 1022.49 471.02   Q 1020.61 469.62 1019.21 467.73   Q 996.02 436.44 966.19 405.68   Z"/>
<path d="   M 99.34 488.11   C 125.07 428.40 151.09 367.72 177.15 308.11   Q 178.08 305.98 179.27 304.36   A 0.63 0.62 -32.4 0 1 180.39 304.61   Q 180.72 306.42 180.43 308.35   Q 173.56 353.74 173.08 397.50   C 173.03 401.51 171.08 404.32 168.06 407.36   Q 130.35 445.36 101.45 489.53   A 0.88 0.87 -54.6 0 1 100.18 489.75   L 99.65 489.33   Q 99.02 488.84 99.34 488.11   Z"/>
<path d="   M 566.48 320.63   A 0.87 0.86 52.3 0 0 567.99 320.83   C 570.00 318.02 571.31 314.08 574.22 312.18   C 582.66 306.67 591.25 307.59 597.18 315.97   Q 605.04 327.09 612.96 339.94   C 616.99 346.47 617.54 354.38 612.15 360.28   C 605.46 367.60 595.04 367.10 588.74 359.51   Q 577.53 346.02 568.79 328.35   A 0.99 0.98 -27.8 0 0 567.43 327.93   Q 566.87 328.24 566.56 328.83   Q 555.66 349.49 546.18 360.47   C 535.97 372.31 514.17 361.03 520.23 345.53   Q 521.82 341.47 525.14 336.17   Q 532.02 325.20 537.98 316.65   C 544.65 307.08 559.20 304.45 564.90 316.88   Q 565.74 318.73 566.48 320.63   Z"/>
<rect x="-31.34" y="-16.00" transform="translate(293.96,387.72) rotate(15.9)" width="62.68" height="32.00" rx="15.30"/>
<rect x="-31.51" y="-15.99" transform="translate(841.52,387.68) rotate(-15.8)" width="63.02" height="31.98" rx="15.24"/>
<path d="   M 394.59 392.69   Q 395.95 392.99 395.47 391.68   C 394.33 388.61 393.00 385.24 393.28 381.99   Q 394.21 371.05 405.30 368.41   C 409.43 367.43 414.81 368.57 419.35 369.36   Q 436.07 372.29 445.79 376.27   C 452.46 379.01 455.76 386.68 454.00 393.71   C 451.32 404.42 440.06 405.82 430.98 404.60   Q 415.83 402.57 400.72 396.75   Q 399.87 396.42 399.57 397.28   Q 399.41 397.73 399.55 398.18   Q 403.87 411.91 406.85 427.98   Q 408.31 435.87 407.11 440.27   Q 405.31 446.88 398.97 450.21   C 389.78 455.05 380.29 449.56 377.42 440.30   Q 373.91 428.96 371.47 414.64   Q 369.89 405.42 371.53 400.54   Q 374.72 391.06 385.75 391.02   C 388.92 391.01 391.60 392.05 394.59 392.69   Z"/>
<path d="   M 740.81 391.83   Q 741.31 392.50 742.00 392.26   C 751.49 388.97 759.55 390.34 763.59 399.81   C 765.39 404.04 765.03 409.91 764.32 414.44   Q 762.36 426.96 758.66 439.00   Q 755.28 450.03 744.93 451.85   C 737.97 453.07 731.81 448.32 729.38 441.96   Q 727.95 438.22 728.14 433.48   C 728.59 422.24 732.52 409.82 735.93 398.75   A 1.30 1.30 0.0 0 0 734.27 397.14   Q 721.50 401.42 707.98 403.78   Q 699.03 405.34 694.30 404.50   Q 686.56 403.11 682.02 394.81   Q 680.69 392.38 681.01 389.56   C 681.60 384.21 683.52 378.24 688.97 376.47   Q 705.16 371.19 721.45 368.59   C 724.10 368.17 729.15 367.76 731.65 368.58   Q 740.36 371.44 742.18 379.94   C 742.93 383.45 741.88 387.64 740.69 391.01   A 0.88 0.87 37.0 0 0 740.81 391.83   Z"/>
<path d="   M 187.78 448.01   C 181.30 434.23 195.39 425.04 205.56 419.88   C 209.72 417.77 208.27 413.64 207.76 410.09   Q 207.06 405.23 206.09 400.35   C 204.23 391.01 205.28 384.47 215.13 380.39   Q 225.50 376.08 232.26 383.45   C 234.44 385.83 235.30 388.80 236.23 391.95   Q 241.70 410.42 242.43 425.27   Q 242.79 432.62 236.31 437.15   Q 224.22 445.60 211.81 453.10   C 203.52 458.10 192.31 457.62 187.78 448.01   Z"/>
<path d="   M 916.54 379.03   C 922.30 379.36 929.05 385.86 930.21 391.26   Q 930.87 394.35 929.90 399.12   Q 928.40 406.52 927.20 413.67   A 5.40 5.39 21.1 0 0 929.61 419.09   C 936.11 423.25 946.21 428.07 948.48 436.12   Q 950.29 442.52 947.63 448.13   C 944.58 454.57 937.14 457.53 930.34 455.84   Q 926.75 454.94 922.33 452.24   Q 908.25 443.63 899.33 436.97   Q 891.64 431.23 893.20 420.75   Q 894.96 408.86 898.66 393.98   C 901.06 384.30 905.97 378.42 916.54 379.03   Z"/>
<rect x="-31.26" y="-16.03" transform="translate(248.64,497.40) rotate(30.4)" width="62.52" height="32.06" rx="15.35"/>
<rect x="-31.39" y="-15.98" transform="translate(886.96,497.36) rotate(-29.8)" width="62.78" height="31.96" rx="15.32"/>
<ellipse cx="0.00" cy="0.00" transform="translate(548.88,519.94) rotate(70.7)" rx="10.69" ry="2.37"/>
<ellipse cx="0.00" cy="0.00" transform="translate(586.25,520.63) rotate(113.3)" rx="11.13" ry="2.28"/>
<path d="   M 186.46 599.97   C 185.21 607.39 180.33 612.63 172.89 614.66   C 160.23 618.10 153.95 602.51 155.23 592.86   Q 158.69 566.79 155.70 540.52   Q 154.77 532.39 155.42 528.95   C 157.06 520.35 165.58 514.36 174.42 516.18   C 182.57 517.86 185.36 523.70 186.65 531.47   Q 192.28 565.43 186.46 599.97   Z"/>
<path d="   M 949.66 528.27   C 951.04 520.94 956.54 516.26 964.03 516.02   C 973.80 515.70 980.12 522.88 980.11 532.45   Q 980.09 543.00 979.14 551.14   Q 978.02 560.81 978.58 570.80   Q 979.57 588.42 980.21 594.75   Q 980.94 602.01 977.53 607.50   C 971.64 617.01 957.88 617.48 951.77 608.06   Q 949.60 604.71 948.62 597.79   Q 943.43 561.34 949.66 528.27   Z"/>
<rect x="-30.74" y="-15.77" transform="translate(339.48,540.88) rotate(-34.0)" width="61.48" height="31.54" rx="15.12"/>
<rect x="-30.71" y="-15.66" transform="translate(796.08,540.84) rotate(33.6)" width="61.42" height="31.32" rx="15.05"/>
<ellipse cx="0.00" cy="0.00" transform="translate(521.82,546.42) rotate(23.8)" rx="11.42" ry="2.28"/>
<ellipse cx="0.00" cy="0.00" transform="translate(613.49,546.52) rotate(-23.9)" rx="11.22" ry="2.43"/>
<rect x="-30.84" y="-15.70" transform="translate(339.44,589.76) rotate(33.2)" width="61.68" height="31.40" rx="15.08"/>
<rect x="-30.88" y="-15.65" transform="translate(796.24,589.76) rotate(-33.4)" width="61.76" height="31.30" rx="15.05"/>
<ellipse cx="0.00" cy="0.00" transform="translate(523.34,583.70) rotate(-24.2)" rx="11.61" ry="2.04"/>
<ellipse cx="0.00" cy="0.00" transform="translate(612.44,583.97) rotate(21.8)" rx="11.19" ry="2.36"/>
<ellipse cx="0.00" cy="0.00" transform="translate(586.65,611.23) rotate(67.7)" rx="11.64" ry="2.40"/>
<ellipse cx="0.00" cy="0.00" transform="translate(549.18,610.40) rotate(113.8)" rx="10.70" ry="2.44"/>
<rect x="-31.32" y="-15.98" transform="translate(886.96,633.20) rotate(30.0)" width="62.64" height="31.96" rx="15.26"/>
<rect x="-31.34" y="-15.95" transform="translate(248.60,633.36) rotate(-29.8)" width="62.68" height="31.90" rx="15.24"/>
<path d="   M 981.37 766.02   Q 971.43 788.99 959.64 814.41   Q 958.78 816.27 957.65 817.75   A 0.59 0.59 0.0 0 1 956.59 817.47   Q 956.39 816.03 956.60 814.54   Q 962.35 773.76 961.95 733.08   C 961.93 731.07 962.86 729.01 964.23 727.51   C 986.10 703.71 1007.25 680.05 1025.80 653.87   Q 1027.10 652.03 1028.82 650.34   Q 1031.03 648.18 1030.27 651.17   Q 1029.70 653.44 1028.70 655.78   Q 1005.00 711.37 981.37 766.02   Z"/>
<path d="   M 180.09 834.96   C 156.73 777.16 133.64 719.03 110.63 661.36   Q 109.89 659.52 109.79 657.79   Q 109.75 657.11 110.36 657.39   Q 111.55 657.93 112.27 658.83   Q 142.51 696.27 171.75 728.30   Q 173.42 730.13 173.43 732.74   Q 173.59 785.48 182.28 835.67   A 0.67 0.67 0.0 0 1 181.27 836.36   Q 180.46 835.88 180.09 834.96   Z"/>
<path d="   M 208.75 717.49   C 209.31 715.14 208.25 712.86 206.23 711.59   Q 198.79 706.92 192.52 702.27   Q 184.81 696.56 186.16 687.48   C 186.96 682.08 190.85 677.28 195.98 675.31   Q 202.94 672.64 210.63 677.12   Q 222.74 684.16 235.44 692.96   C 242.10 697.57 243.46 702.92 242.22 710.98   Q 240.03 725.31 236.43 738.32   Q 234.48 745.36 229.09 748.97   C 220.77 754.53 209.34 751.41 206.62 741.37   Q 205.52 737.29 206.26 731.35   Q 207.15 724.13 208.75 717.49   Z"/>
<path d="   M 929.21 711.74   C 927.73 712.58 926.89 714.55 927.18 716.20   Q 928.47 723.41 929.60 731.18   C 931.06 741.25 927.91 749.48 916.68 751.57   C 897.27 755.17 893.95 719.93 892.75 707.88   Q 891.92 699.54 898.16 694.68   Q 911.58 684.23 925.74 677.09   Q 930.08 674.89 933.45 674.52   C 941.40 673.65 948.42 679.07 949.03 687.22   C 950.01 700.17 938.73 706.29 929.21 711.74   Z"/>
<path d="   M 401.21 733.38   Q 401.80 733.46 402.44 733.25   Q 423.75 726.49 439.72 725.61   C 451.06 724.99 456.73 737.53 453.10 747.21   Q 450.57 753.95 442.31 756.07   Q 424.00 760.75 411.37 762.67   C 400.55 764.31 389.85 754.38 394.01 742.97   Q 394.47 741.70 394.97 740.39   Q 396.36 736.76 392.86 738.46   Q 386.76 741.42 379.07 738.58   C 372.11 736.00 370.16 729.32 370.78 722.54   Q 372.32 705.79 377.87 689.04   C 380.59 680.83 386.83 677.60 394.94 679.06   C 402.99 680.50 409.82 690.05 408.01 698.01   Q 404.19 714.88 400.33 732.12   A 1.04 1.03 -80.2 0 0 401.21 733.38   Z"/>
<path d="   M 740.50 737.99   A 0.59 0.59 0.0 0 0 739.99 738.83   Q 742.23 743.59 742.26 748.03   C 742.35 759.16 731.66 764.07 721.92 762.32   Q 708.83 759.96 694.16 756.12   Q 690.02 755.04 686.99 752.74   C 678.01 745.93 679.34 733.58 688.89 728.06   Q 694.79 724.65 702.98 726.03   Q 720.03 728.89 734.47 733.52   A 1.03 1.02 -86.2 0 0 735.79 732.36   Q 735.76 732.19 735.71 731.99   C 732.85 721.49 729.61 710.92 728.40 700.51   C 727.91 696.30 727.79 690.94 729.85 687.25   Q 734.53 678.86 744.57 678.75   C 752.71 678.66 756.29 683.98 758.40 690.96   Q 763.64 708.27 765.19 722.51   C 765.80 728.21 763.11 734.31 758.27 737.44   Q 750.80 742.25 741.87 738.26   Q 741.20 737.96 740.50 737.99   Z"/>
<rect x="-31.45" y="-15.93" transform="translate(293.95,743.00) rotate(-15.7)" width="62.90" height="31.86" rx="15.23"/>
<rect x="-31.48" y="-15.98" transform="translate(841.59,743.04) rotate(15.7)" width="62.96" height="31.96" rx="15.26"/>
<path d="   M 567.77 803.04   Q 568.38 802.66 568.74 802.00   Q 578.26 784.85 587.27 772.61   C 598.94 756.76 624.02 770.21 614.13 788.51   Q 607.80 800.24 597.27 814.25   C 591.78 821.56 584.54 823.97 575.63 819.80   Q 573.79 818.94 572.74 817.29   Q 570.32 813.46 567.73 809.24   A 1.00 0.99 -8.4 0 0 567.13 808.80   Q 566.24 808.58 566.01 809.32   Q 565.01 812.50 564.15 815.71   C 563.41 818.48 559.90 820.06 557.23 820.93   Q 545.95 824.61 538.68 814.72   Q 529.79 802.65 522.13 789.43   Q 518.12 782.50 520.11 775.93   C 522.03 769.55 528.28 765.53 534.80 765.61   C 541.19 765.69 545.98 769.34 549.74 774.44   Q 560.44 788.97 566.65 802.71   Q 567.01 803.52 567.77 803.04   Z"/>
<path d="   M 258.44 807.24   C 264.36 805.48 268.25 806.49 273.18 809.99   Q 302.89 831.07 323.72 860.75   Q 331.33 871.59 322.01 881.26   C 314.42 889.14 303.15 885.74 297.15 878.15   Q 278.58 854.64 258.42 838.94   Q 252.33 834.19 250.21 830.44   Q 245.52 822.14 250.82 812.26   C 252.30 809.50 255.57 808.09 258.44 807.24   Z"/>
<path d="   M 863.72 809.12   C 867.02 806.75 871.50 806.40 875.53 807.28   Q 886.20 809.62 887.88 819.41   C 888.86 825.13 885.87 831.65 881.65 835.09   Q 861.28 851.71 844.66 870.62   C 841.26 874.48 838.19 878.76 834.45 882.14   C 826.31 889.49 813.82 884.46 809.74 875.66   C 806.96 869.68 808.97 864.54 812.68 859.57   Q 834.95 829.73 863.72 809.12   Z"/>
<rect x="-16.06" y="-31.49" transform="translate(390.08,839.04) rotate(16.4)" width="32.12" height="62.98" rx="15.32"/>
<rect x="-15.97" y="-31.45" transform="translate(745.32,838.92) rotate(-16.3)" width="31.94" height="62.90" rx="15.25"/>
<rect x="-16.07" y="-31.38" transform="translate(499.84,884.48) rotate(30.3)" width="32.14" height="62.76" rx="15.36"/>
<rect x="-15.98" y="-31.42" transform="translate(635.80,884.48) rotate(-30.5)" width="31.96" height="62.84" rx="15.34"/>
<path d="   M 383.34 904.86   Q 386.52 899.10 393.82 897.03   Q 412.66 891.68 427.58 890.35   C 432.40 889.92 436.92 892.92 439.83 896.91   Q 446.08 905.50 450.58 912.60   C 454.31 918.49 458.02 925.82 458.65 932.76   C 459.40 941.04 453.32 945.81 445.79 946.82   C 434.64 948.30 427.08 936.94 422.70 928.51   Q 420.33 923.93 415.35 924.84   Q 408.07 926.15 400.50 927.56   Q 387.70 929.95 382.54 918.82   Q 379.38 912.02 383.34 904.86   Z"/>
<path d="   M 752.94 918.34   C 746.03 931.29 731.79 927.52 720.44 924.54   C 717.39 923.74 714.93 925.26 713.47 927.89   C 708.30 937.13 700.61 949.70 688.20 946.45   C 677.26 943.58 673.57 932.55 679.09 922.99   Q 688.12 907.35 697.82 894.87   C 701.68 889.91 706.39 889.82 712.66 890.81   Q 728.59 893.32 741.97 897.07   C 751.06 899.62 757.78 909.26 752.94 918.34   Z"/>
<path d="   M 520.00 969.54   C 517.45 964.74 517.39 960.03 519.80 955.26   C 523.74 947.46 530.38 946.95 539.55 945.74   C 561.68 942.83 584.21 942.99 605.99 947.59   C 611.55 948.76 615.84 952.50 616.75 958.24   C 617.43 962.54 617.05 967.36 614.47 970.98   C 607.10 981.33 595.56 977.43 585.09 976.76   Q 561.39 975.24 538.15 977.91   C 530.62 978.77 523.72 976.53 520.00 969.54   Z"/>
<path d="   M 834.22 953.16   C 775.32 976.65 716.56 1000.31 663.79 1020.81   Q 661.53 1021.69 662.45 1019.59   Q 662.61 1019.23 663.68 1018.42   Q 698.01 992.51 728.39 962.88   C 730.49 960.84 733.97 960.04 736.88 960.00   C 769.32 959.49 802.02 956.66 833.10 950.93   Q 833.98 950.77 834.61 951.45   A 1.06 1.06 0.0 0 1 834.22 953.16   Z"/>
<path d="   M 481.83 1028.70   C 428.55 1005.79 375.28 982.60 321.02 959.22   Q 316.15 957.12 312.34 954.95   A 0.56 0.55 51.6 0 1 312.45 953.94   Q 313.92 953.50 315.39 953.72   Q 353.39 959.46 393.91 959.75   C 400.00 959.79 404.37 959.98 409.09 964.41   Q 415.27 970.20 421.52 975.99   Q 449.27 1001.76 480.45 1025.07   Q 482.21 1026.38 482.83 1027.64   Q 483.78 1029.54 481.83 1028.70   Z"/>
</g>
</svg>
